<svg width="20" height="23" viewBox="0 0 20 23" fill="none" xmlns="http://www.w3.org/2000/svg">
<path d="M19.6347 12.0427C19.4565 12.3539 19.2205 12.6208 18.942 12.8262L11.6791 18.1791C10.6644 18.9269 9.33548 18.9269 8.32082 18.1791L1.05795 12.8262C0.144379 12.1528 -0.209888 10.9133 0.122602 9.82496L8.3351 15.8015C9.28025 16.4896 10.4936 16.5326 11.4722 15.9305L11.6647 15.8015L19.8766 9.82431C20.0947 10.5401 20.0295 11.353 19.6347 12.0427ZM19.8766 14.0844C20.0947 14.8002 20.0295 15.613 19.6347 16.3028C19.4565 16.614 19.2205 16.8808 18.942 17.0862L11.6791 22.4391C10.6644 23.187 9.33548 23.187 8.32082 22.4391L1.05795 17.0862C0.144379 16.4129 -0.209888 15.1734 0.122602 14.0851L8.3351 20.0616C9.28025 20.7497 10.4936 20.7927 11.4722 20.1906L11.6647 20.0616L19.8766 14.0844ZM11.6647 0.550377L19.3061 6.11267C19.8578 6.51424 20.0068 7.32807 19.6391 7.93042C19.5511 8.07441 19.438 8.19796 19.3061 8.29397L11.6647 13.8563C10.6566 14.5901 9.34328 14.5901 8.3351 13.8563L0.693775 8.29397C0.14211 7.89239 -0.00695589 7.07857 0.360817 6.47622C0.448741 6.33222 0.5619 6.20866 0.693775 6.11267L8.3351 0.550377C9.34328 -0.183459 10.6566 -0.183459 11.6647 0.550377ZM9.47269 2.09937L9.33404 2.18634L2.44282 7.20332L9.33404 12.2203C9.6925 12.4812 10.1474 12.5101 10.5272 12.3072L10.6659 12.2203L17.5559 7.20332L10.6659 2.18634C10.3074 1.92543 9.85253 1.89643 9.47269 2.09937Z" fill="#CFFFDC"/>
</svg>
