<svg width="20" height="23" viewBox="0 0 20 23" fill="none" xmlns="http://www.w3.org/2000/svg">
<path d="M1 0C0.44772 0 0 0.321765 0 0.718675L4.00543e-05 12.9424C4.00543e-05 14.53 1.7909 15.8171 4.00004 15.8171H6.00822V20.1253C6.00822 21.713 7.79908 23 10.0082 23C12.2174 23 14.0082 21.713 14.0082 20.1253V15.8171H16C18.2092 15.8171 20 14.53 20 12.9424V10.7864V10.78V0.718675C20 0.321765 19.5522 0 19 0H1ZM2.00004 11.5051H18V12.9424C18 13.7363 17.1046 14.3798 16 14.3798H13.0082C12.456 14.3798 12.0082 14.7015 12.0082 15.0985V20.1253C12.0082 20.9191 11.1128 21.5627 10.0082 21.5627C8.90366 21.5627 8.00822 20.9191 8.00822 20.1253V15.0985C8.00822 14.7015 7.56052 14.3798 7.00822 14.3798H4.00004C2.89546 14.3798 2.00004 13.7363 2.00004 12.9424V11.5051ZM18 10.0677H2V1.43735H10V3.59337C10 3.9903 10.4478 4.31205 11 4.31205C11.5522 4.31205 12 3.9903 12 3.59337V1.43735H14V5.03388C14 5.43079 14.4478 5.75256 15 5.75256C15.5522 5.75256 16 5.43079 16 5.03388V1.43735H18V10.0677Z" fill="#CFFFDC"/>
</svg>
