<svg width="20" height="23" viewBox="0 0 20 23" fill="none" xmlns="http://www.w3.org/2000/svg">
<path d="M5.12077 10.701C5.05407 11.0938 5.36915 11.4588 5.82453 11.5164C6.27992 11.5739 6.70313 11.3021 6.76983 10.9093L6.91307 10.0659H8.97862L8.87077 10.701C8.80407 11.0938 9.11915 11.4588 9.57453 11.5164C10.0298 11.5739 10.4532 11.3021 10.5198 10.9093L10.663 10.0659H11.6667C12.1268 10.0659 12.5 9.74415 12.5 9.34719C12.5 8.95023 12.1268 8.62844 11.6667 8.62844H10.9072L11.2733 6.47219H12.5C12.9602 6.47219 13.3333 6.1504 13.3333 5.75344C13.3333 5.35648 12.9602 5.03469 12.5 5.03469H11.5175L11.7445 3.69801C11.8112 3.30524 11.496 2.94021 11.0407 2.88268C10.5853 2.82516 10.162 3.09692 10.0953 3.48969L9.83298 5.03469H7.76743L7.99443 3.69801C8.06112 3.30524 7.74603 2.94021 7.29065 2.88268C6.83528 2.82516 6.41205 3.09692 6.34535 3.48969L6.08298 5.03469H5C4.53977 5.03469 4.16667 5.35648 4.16667 5.75344C4.16667 6.1504 4.53977 6.47219 5 6.47219H5.83888L5.47272 8.62844H4.16667C3.70643 8.62844 3.33333 8.95023 3.33333 9.34719C3.33333 9.74415 3.70643 10.0659 4.16667 10.0659H5.22862L5.12077 10.701ZM9.58888 6.47219L9.22272 8.62844H7.15717L7.52333 6.47219H9.58888ZM3.33333 0C1.49238 0 0 1.28718 0 2.875V20.125C0 21.7129 1.49238 23 3.33333 23H16.6667C18.5077 23 20 21.7129 20 20.125V2.875C20 1.28718 18.5077 0 16.6667 0H3.33333ZM3.33333 1.4375H16.6667C17.5872 1.4375 18.3333 2.08108 18.3333 2.875V20.125C18.3333 20.9189 17.5872 21.5625 16.6667 21.5625H3.33333C2.41287 21.5625 1.66667 20.9189 1.66667 20.125V2.875C1.66667 2.0811 2.41287 1.4375 3.33333 1.4375Z" fill="#CFFFDC"/>
</svg>
