<svg width="120" height="120" viewBox="0 0 120 120" fill="none" xmlns="http://www.w3.org/2000/svg">
<path fill-rule="evenodd" clip-rule="evenodd" d="M35.2636 0.36C41.6618 0.0654545 43.7018 0 60 0C76.2982 0 78.3382 0.070909 84.7309 0.36C91.1236 0.649091 95.4873 1.66909 99.3055 3.14727C103.304 4.65818 106.931 7.02 109.931 10.0745C112.985 13.0691 115.342 16.6909 116.847 20.6945C118.331 24.5127 119.345 28.8764 119.64 35.2582C119.935 41.6673 120 43.7073 120 60C120 76.2982 119.929 78.3382 119.64 84.7364C119.351 91.1182 118.331 95.4818 116.847 99.3C115.342 103.304 112.982 106.932 109.931 109.931C106.931 112.985 103.304 115.342 99.3055 116.847C95.4873 118.331 91.1236 119.345 84.7418 119.64C78.3382 119.935 76.2982 120 60 120C43.7018 120 41.6618 119.929 35.2636 119.64C28.8818 119.351 24.5182 118.331 20.7 116.847C16.6959 115.342 13.0681 112.981 10.0691 109.931C7.01662 106.935 4.65444 103.308 3.14727 99.3055C1.66909 95.4873 0.654545 91.1236 0.36 84.7418C0.0654545 78.3327 0 76.2927 0 60C0 43.7018 0.070909 41.6618 0.36 35.2691C0.649091 28.8764 1.66909 24.5127 3.14727 20.6945C4.65667 16.6914 7.02065 13.0653 10.0745 10.0691C13.0693 7.01728 16.6935 4.65515 20.6945 3.14727C24.5127 1.66909 28.8764 0.654545 35.2582 0.36H35.2636ZM84.2455 11.16C77.9182 10.8709 76.02 10.8109 60 10.8109C43.98 10.8109 42.0818 10.8709 35.7545 11.16C29.9018 11.4273 26.7273 12.4036 24.6109 13.2273C21.8127 14.3182 19.8109 15.6109 17.7109 17.7109C15.7202 19.6476 14.1883 22.0052 13.2273 24.6109C12.4036 26.7273 11.4273 29.9018 11.16 35.7545C10.8709 42.0818 10.8109 43.98 10.8109 60C10.8109 76.02 10.8709 77.9182 11.16 84.2455C11.4273 90.0982 12.4036 93.2727 13.2273 95.3891C14.1873 97.9909 15.72 100.353 17.7109 102.289C19.6473 104.28 22.0091 105.813 24.6109 106.773C26.7273 107.596 29.9018 108.573 35.7545 108.84C42.0818 109.129 43.9745 109.189 60 109.189C76.0255 109.189 77.9182 109.129 84.2455 108.84C90.0982 108.573 93.2727 107.596 95.3891 106.773C98.1873 105.682 100.189 104.389 102.289 102.289C104.28 100.353 105.813 97.9909 106.773 95.3891C107.596 93.2727 108.573 90.0982 108.84 84.2455C109.129 77.9182 109.189 76.02 109.189 60C109.189 43.98 109.129 42.0818 108.84 35.7545C108.573 29.9018 107.596 26.7273 106.773 24.6109C105.682 21.8127 104.389 19.8109 102.289 17.7109C100.352 15.7204 97.9947 14.1884 95.3891 13.2273C93.2727 12.4036 90.0982 11.4273 84.2455 11.16ZM52.3364 78.4964C56.6163 80.278 61.3821 80.5184 65.8196 79.1767C70.2572 77.8349 74.0912 74.9941 76.667 71.1395C79.2427 67.2849 80.4003 62.6557 79.9421 58.0424C79.4838 53.4291 77.4382 49.118 74.1545 45.8455C72.0613 43.7535 69.5303 42.1517 66.7436 41.1553C63.957 40.159 60.9842 39.7929 58.0391 40.0834C55.094 40.3738 52.2499 41.3137 49.7117 42.8353C47.1734 44.3568 45.0041 46.4222 43.3598 48.8828C41.7156 51.3434 40.6374 54.1379 40.2028 57.0652C39.7682 59.9925 39.9881 62.9798 40.8466 65.8119C41.7051 68.644 43.1808 71.2506 45.1676 73.4439C47.1543 75.6373 49.6027 77.3628 52.3364 78.4964ZM38.1927 38.1927C41.0565 35.329 44.4563 33.0573 48.198 31.5074C51.9397 29.9576 55.95 29.1599 60 29.1599C64.05 29.1599 68.0603 29.9576 71.802 31.5074C75.5437 33.0573 78.9435 35.329 81.8073 38.1927C84.671 41.0565 86.9427 44.4563 88.4926 48.198C90.0424 51.9397 90.8401 55.95 90.8401 60C90.8401 64.05 90.0424 68.0603 88.4926 71.802C86.9427 75.5437 84.671 78.9435 81.8073 81.8073C76.0236 87.5909 68.1793 90.8401 60 90.8401C51.8207 90.8401 43.9764 87.5909 38.1927 81.8073C32.4091 76.0236 29.1599 68.1793 29.1599 60C29.1599 51.8207 32.4091 43.9764 38.1927 38.1927ZM97.68 33.7527C98.3897 33.0833 98.9578 32.2783 99.3507 31.3853C99.7437 30.4924 99.9535 29.5296 99.9677 28.5542C99.982 27.5787 99.8003 26.6103 99.4335 25.7062C99.0668 24.8022 98.5224 23.981 97.8325 23.2911C97.1427 22.6013 96.3214 22.0569 95.4174 21.6901C94.5134 21.3233 93.545 21.1417 92.5695 21.1559C91.594 21.1701 90.6313 21.3799 89.7383 21.7729C88.8454 22.1658 88.0404 22.734 87.3709 23.4436C86.069 24.8238 85.3562 26.657 85.3838 28.5542C85.4115 30.4513 86.1774 32.263 87.519 33.6046C88.8607 34.9462 90.6723 35.7122 92.5695 35.7398C94.4666 35.7675 96.2998 35.0547 97.68 33.7527Z" fill="black"/>
</svg>
