<svg width="20" height="23" viewBox="0 0 20 23" fill="none" xmlns="http://www.w3.org/2000/svg">
<path d="M0.588176 0C0.263338 0 0 0.367724 0 0.821326C0 1.27493 0.263338 1.64265 0.588176 1.64265H7.05811C7.38294 1.64265 7.64628 1.27493 7.64628 0.821326C7.64628 0.367724 7.38294 0 7.05811 0H0.588176ZM4.11723 4.92796C3.79239 4.92796 3.52905 5.29568 3.52905 5.74928C3.52905 6.20288 3.79239 6.57061 4.11723 6.57061H9.99899C10.3238 6.57061 10.5872 6.20288 10.5872 5.74928C10.5872 5.29568 10.3238 4.92796 9.99899 4.92796H4.11723ZM2.3527 10.6772C2.3527 10.2237 2.61604 9.85591 2.94088 9.85591H14.0499L12.8735 11.4986H2.94088C2.61604 11.4986 2.3527 11.1308 2.3527 10.6772ZM9.73266 15.8846L10.5208 14.7839H0.588176C0.263338 14.7839 0 15.1517 0 15.6052C0 16.0587 0.263338 16.4265 0.588176 16.4265H9.39434C9.49774 16.236 9.61067 16.0548 9.73266 15.8846ZM12.3517 5.74928C12.3517 5.29568 12.6151 4.92796 12.9399 4.92796H17.0571C17.3819 4.92796 17.6453 5.29568 17.6453 5.74928C17.6453 6.20288 17.3819 6.57061 17.0571 6.57061H12.9399C12.6151 6.57061 12.3517 6.20288 12.3517 5.74928ZM9.99899 0C9.67419 0 9.41081 0.367724 9.41081 0.821326C9.41081 1.27493 9.67419 1.64265 9.99899 1.64265H17.6453C17.9701 1.64265 18.2334 1.27493 18.2334 0.821326C18.2334 0.367724 17.9701 0 17.6453 0H9.99899ZM10.5634 17.0461L16.2445 9.1131C17.1036 7.91333 18.4966 7.91333 19.3557 9.1131C20.2148 10.3127 20.2148 12.2578 19.3557 13.4576L13.6746 21.3906C13.3434 21.8532 12.9283 22.1812 12.4739 22.3399L10.7119 22.9551C9.94558 23.2225 9.25143 22.2533 9.44304 21.1833L9.88347 18.7228C9.9971 18.0882 10.2321 17.5087 10.5634 17.0461Z" fill="#CFFFDC"/>
</svg>
