<svg width="120" height="100" viewBox="0 0 120 100" fill="none" xmlns="http://www.w3.org/2000/svg">
<path d="M114 0.0438724C113.489 -0.0146241 112.974 -0.0146241 112.463 0.0438724H7.4626C6.78964 0.0553887 6.12114 0.167457 5.4751 0.377059L59.6626 60.3091L114 0.0438724Z" fill="black"/>
<path d="M119.55 5.83301L64.95 66.2232C63.5448 67.7746 61.6439 68.6454 59.6625 68.6454C57.6811 68.6454 55.7802 67.7746 54.375 66.2232L0.2625 6.29114C0.0961479 6.97018 0.00794507 7.66989 0 8.37356V91.6703C0 93.8795 0.790176 95.9982 2.1967 97.5603C3.60322 99.1224 5.51088 100 7.5 100H112.5C114.489 100 116.397 99.1224 117.803 97.5603C119.21 95.9982 120 93.8795 120 91.6703V8.37356C119.97 7.50584 119.818 6.64863 119.55 5.83301ZM12.6375 91.6703H7.425V85.7146L34.6875 55.6861L39.975 61.5585L12.6375 91.6703ZM112.425 91.6703H107.175L79.8375 61.5585L85.125 55.6861L112.387 85.7146L112.425 91.6703Z" fill="black"/>
</svg>
