<svg width="120" height="120" viewBox="0 0 120 120" fill="none" xmlns="http://www.w3.org/2000/svg">
<g clip-path="url(#clip0_9_84)">
<path d="M78.4162 0H41.58C7.96497 0 -0.00378418 7.96875 -0.00378418 41.5837V78.42C-0.00378418 112.035 7.96497 120.004 41.58 120.004H78.4162C112.031 120.004 120 112.035 120 78.42V41.5837C120 7.96875 111.952 0 78.4162 0ZM96.8737 85.605H88.1625C84.8625 85.605 83.8462 82.9875 77.91 76.9725C72.7537 71.9737 70.47 71.31 69.1987 71.31C67.4025 71.31 66.8925 71.8163 66.8925 74.28V82.1512C66.8925 84.2625 66.2287 85.53 60.6412 85.53C51.4012 85.53 41.1487 79.9425 33.96 69.5325C23.1187 54.2775 20.1525 42.8512 20.1525 40.4888C20.1525 39.2175 20.6587 38.0287 23.1 38.0287H31.83C34.0387 38.0287 34.8787 39.045 35.7375 41.4075C40.0537 53.8687 47.2425 64.785 50.2087 64.785C51.3037 64.785 51.81 64.2787 51.81 61.485V48.615C51.4762 42.6787 48.3525 42.1687 48.3525 40.0612C48.3525 39.045 49.1925 38.0287 50.5387 38.0287H64.2675C66.1237 38.0287 66.8062 39.045 66.8062 41.2313V58.5938C66.8062 60.4688 67.6462 61.1325 68.1525 61.1325C69.2475 61.1325 70.185 60.4688 72.2137 58.4362C78.4837 51.405 82.9762 40.5638 82.9762 40.5638C83.5612 39.2925 84.5775 38.1038 86.7862 38.1038H95.5162C98.1337 38.1038 98.7187 39.45 98.1337 41.325C97.0387 46.4025 86.355 61.4813 86.355 61.4813C85.4362 63.0037 85.0837 63.6675 86.355 65.3662C87.2925 66.6375 90.3412 69.2738 92.37 71.6363C96.1012 75.8737 98.97 79.4287 99.735 81.8887C100.594 84.33 99.3262 85.6012 96.8625 85.6012L96.8737 85.605Z" fill="black"/>
</g>
<defs>
<clipPath id="clip0_9_84">
<rect width="120" height="120" fill="white"/>
</clipPath>
</defs>
</svg>
